<?xml version="1.0" standalone="no"?>
<!DOCTYPE svg PUBLIC "-//W3C//DTD SVG 20010904//EN"
 "http://www.w3.org/TR/2001/REC-SVG-20010904/DTD/svg10.dtd">
<svg version="1.0" xmlns="http://www.w3.org/2000/svg"
 width="700.000000pt" height="700.000000pt" viewBox="0 0 700.000000 700.000000"
 preserveAspectRatio="xMidYMid meet">
<metadata>
Created by potrace 1.11, written by Peter Selinger 2001-2013
</metadata>
<g transform="translate(0.000000,700.000000) scale(0.100000,-0.100000)"
fill="#000000" stroke="none">
<path d="M3013 6762 c-65 -23 -135 -80 -169 -138 -14 -24 -35 -79 -46 -122
-10 -42 -23 -94 -29 -114 l-9 -37 -483 -3 c-471 -3 -483 -4 -538 -26 -71 -28
-143 -97 -177 -170 l-27 -57 -3 -1732 -2 -1732 -528 -3 -527 -3 -67 -33 c-80
-39 -139 -102 -168 -179 -20 -54 -20 -68 -18 -1006 l3 -952 27 -50 c33 -64 89
-120 153 -153 l50 -27 2715 0 2715 0 46 23 c74 36 125 87 161 160 l33 67 3
1589 2 1590 75 77 c67 69 75 81 75 116 0 22 -6 48 -14 59 -14 18 0 34 203 239
196 197 220 226 240 278 60 162 -8 341 -157 414 -50 24 -68 28 -147 27 -106 0
-159 -20 -229 -84 l-45 -42 -3 674 -3 673 -28 60 c-44 94 -111 153 -212 188
-18 7 -217 13 -509 16 l-480 6 -26 105 c-15 58 -36 123 -47 145 -28 54 -87
111 -148 143 l-50 27 -780 2 c-729 2 -783 1 -832 -15z m1567 -217 c16 -8 35
-25 41 -38 7 -12 45 -151 85 -309 l72 -288 -949 0 c-522 0 -949 1 -949 3 0 1
34 134 74 295 74 292 86 324 131 343 11 4 345 8 743 8 626 1 727 -1 752 -14z
m-1883 -439 c-3 -8 -9 -31 -13 -50 l-6 -36 -365 0 c-391 0 -402 -1 -437 -52
-14 -20 -16 -194 -16 -1680 l0 -1658 -55 0 -55 0 2 1716 3 1716 33 29 32 29
441 0 c378 0 440 -2 436 -14z m3174 -15 l29 -29 0 -779 0 -779 -50 -49 -50
-49 0 758 c0 841 2 808 -65 840 -28 14 -86 16 -394 16 l-360 0 -10 38 c-6 20
-11 43 -11 50 0 9 95 12 441 12 l441 0 29 -29z m-3239 -328 c5 -17 20 -41 34
-52 27 -21 30 -21 1164 -21 l1137 0 27 25 c14 13 29 38 32 55 l7 30 271 -2
271 -3 3 -725 2 -725 -134 -135 c-74 -74 -139 -145 -145 -157 -15 -29 -14 -72
3 -104 13 -26 11 -29 -1056 -1095 l-1070 -1069 -164 -327 c-183 -366 -189
-385 -135 -439 54 -54 73 -48 434 132 l322 161 973 971 972 972 0 -1243 0
-1242 -1475 0 -1475 0 0 773 c0 836 -1 846 -54 927 -80 122 -169 160 -373 160
l-123 0 0 1585 0 1585 272 -2 272 -3 8 -32z m3827 -1127 c49 -26 66 -99 35
-146 -24 -36 -387 -400 -399 -400 -13 0 -145 132 -145 145 0 13 377 388 405
404 28 15 71 14 104 -3z m-1852 -2042 c-561 -563 -1025 -1024 -1031 -1024 -13
0 -146 131 -146 145 0 5 460 470 1022 1032 l1023 1023 76 -76 77 -76 -1021
-1024z m1262 836 l31 0 0 -1462 c0 -1371 -2 -1464 -18 -1484 -9 -12 -27 -27
-39 -33 -16 -8 -465 -11 -1628 -11 -1525 0 -1606 1 -1602 18 3 9 8 34 12 55
l6 37 1549 0 1550 0 32 29 33 29 3 1421 c2 1399 3 1421 21 1411 11 -5 33 -10
50 -10z m-4779 -1855 c0 -196 7 -222 62 -251 57 -29 92 -14 185 78 l82 82 83
-81 c46 -44 94 -84 106 -88 39 -12 89 3 116 36 26 30 26 32 26 215 l0 184 325
0 325 0 0 -624 0 -623 -24 -26 c-13 -14 -35 -29 -48 -32 -12 -3 -429 -4 -925
-3 l-903 3 -27 28 -28 27 -3 625 -2 625 325 0 325 0 0 -175z"/>
<path d="M3280 6235 l0 -115 220 0 220 0 0 115 0 115 -220 0 -220 0 0 -115z"/>
<path d="M3930 6235 l0 -115 225 0 225 0 0 115 0 115 -225 0 -225 0 0 -115z"/>
<path d="M2569 5345 c-58 -31 -59 -41 -59 -532 0 -502 0 -500 70 -535 32 -16
77 -18 483 -18 395 0 453 2 483 16 65 31 64 23 64 545 l0 471 -34 34 -34 34
-474 0 c-390 -1 -478 -3 -499 -15z m821 -530 l0 -325 -325 0 -325 0 0 325 0
325 325 0 325 0 0 -325z"/>
<path d="M3830 5250 l0 -110 655 0 655 0 0 110 0 110 -655 0 -655 0 0 -110z"/>
<path d="M3830 4810 l0 -110 655 0 655 0 0 110 0 110 -655 0 -655 0 0 -110z"/>
<path d="M2585 4040 c-11 -4 -31 -20 -45 -35 l-25 -27 0 -479 0 -479 33 -32
32 -33 470 -3 c408 -2 474 -1 500 13 60 31 60 29 60 534 0 274 -4 470 -10 485
-5 14 -24 35 -42 46 -32 19 -50 20 -493 19 -253 0 -469 -4 -480 -9z"/>
<path d="M3830 3940 l0 -110 440 0 441 0 -3 108 -3 107 -437 3 -438 2 0 -110z"/>
<path d="M3830 3500 l0 -110 330 0 330 0 0 110 0 110 -330 0 -330 0 0 -110z"/>
</g>
</svg>
